# Exported from Wings 3D 2.1.5
mtllib lectern.mtl
o base
#8 vertices, 6 faces
v 0.43750000 6.3086664e-3 -0.43750000
v -0.43750000 6.3086664e-3 -0.43750000
v -0.43750000 7.1901043e-2 -0.43750000
v 0.43750000 7.1901043e-2 -0.43750000
v -0.43750000 6.3086664e-3 0.50000000
v 0.43750000 6.3086664e-3 0.50000000
v 0.43750000 0.31722957 0.50000000
v -0.43750000 0.31722957 0.50000000
vt 9.3750000e-2 0.40616298
vt 9.3750000e-2 0.53125000
vt 0.32812500 0.50000000
vt 0.32812500 0.53125000
vt 0.32812500 1.00000000
vt 0.54687500 0.50000000
vt 0.54687500 0.53125000
vt 0.54687500 1.00000000
vt 0.76562500 0.53125000
vt 0.76562500 1.00000000
vt 0.78125000 0.40616298
vt 0.78125000 0.53139718
vt 1.00000000 0.40616298
vt 1.00000000 0.53139718
vn 0.57735027 -0.57735027 -0.57735027
vn -0.57735027 -0.57735027 -0.57735027
vn -0.53404064 0.51664406 -0.66923801
vn 0.53404064 0.51664406 -0.66923801
vn -0.57735027 -0.57735027 0.57735027
vn 0.57735027 -0.57735027 0.57735027
vn 0.63325630 0.61262772 0.47294157
vn -0.63325630 0.61262772 0.47294157
g base_default
usemtl matlectern
f 1/8/1 6/7/6 5/9/5 2/10/2
f 2/6/2 3/7/3 4/4/4 1/3/1
f 2/6/2 5/11/5 8/12/8 3/7/3
f 3/7/3 8/8/8 7/5/7 4/4/4
f 4/4/4 7/2/7 6/1/6 1/3/1
f 6/13/6 7/14/7 8/12/8 5/11/5
o brim
#8 vertices, 6 faces
v -0.38937500 3.4068910e-2 -0.43750000
v -0.38937500 0.11206891 -0.43750000
v 0.38937500 0.11206891 -0.43750000
v 0.38937500 3.4068910e-2 -0.43750000
v -0.38937500 0.11206891 -0.37500000
v -0.38937500 3.4068910e-2 -0.37500000
v 0.38937500 3.4068910e-2 -0.37500000
v 0.38937500 0.11206891 -0.37500000
vt 0.0000000e+0 0.53125000
vt 0.0000000e+0 0.96875000
vt 1.5625000e-2 0.53125000
vt 1.5625000e-2 0.96875000
vt 1.5625000e-2 1.00000000
vt 4.6875000e-2 0.53125000
vt 4.6875000e-2 0.96875000
vt 4.6875000e-2 1.00000000
vt 6.2500000e-2 0.53125000
vt 6.2500000e-2 0.96875000
vt 7.8125000e-2 0.96875000
vt 7.8125000e-2 1.00000000
vt 9.3750000e-2 0.53125000
vt 9.3750000e-2 0.96875000
vn -0.57735027 -0.57735027 -0.57735027
vn -0.57735027 0.57735027 -0.57735027
vn 0.57735027 0.57735027 -0.57735027
vn 0.57735027 -0.57735027 -0.57735027
vn -0.57735027 0.57735027 0.57735027
vn -0.57735027 -0.57735027 0.57735027
vn 0.57735027 -0.57735027 0.57735027
vn 0.57735027 0.57735027 0.57735027
g brim_default
usemtl matlectern
f 9/22/9 14/21/14 13/25/13 10/26/10
f 10/20/10 11/21/11 12/18/12 9/17/9
f 10/20/10 13/23/13 16/24/16 11/21/11
f 11/21/11 16/22/16 15/19/15 12/18/12
f 12/18/12 15/16/15 14/15/14 9/17/9
f 14/27/14 15/28/15 16/24/16 13/23/13
